<svg xmlns="http://www.w3.org/2000/svg" viewBox="0 0 256 256" role="img" aria-labelledby="title desc">
  <title id="title">Taskmaster</title>
  <desc id="desc">Logotipo dorado con la letra T</desc>
  <defs>
    <linearGradient id="gold" x1="35%" y1="5%" x2="70%" y2="95%">
      <stop offset="0" stop-color="#fff0a6"/>
      <stop offset=".22" stop-color="#d39b2d"/>
      <stop offset=".5" stop-color="#fff2a2"/>
      <stop offset=".76" stop-color="#8b5b14"/>
      <stop offset="1" stop-color="#e4ae3d"/>
    </linearGradient>
    <filter id="shadow" x="-20%" y="-20%" width="140%" height="140%">
      <feDropShadow dx="3" dy="6" stdDeviation="4" flood-color="#4a2c06" flood-opacity=".55"/>
    </filter>
  </defs>
  <path filter="url(#shadow)" fill="url(#gold)" stroke="#6f430b" stroke-width="2" d="M37 80c18-35 48-54 88-55h93c-13 21-32 36-58 45h-25v79c0 21-9 41-26 59l-21 27c28-13 48-31 61-54 9 10 21 17 36 20-20 28-52 45-96 52l-30 6c27-24 39-52 39-83V78H82c-17 0-32 5-45 16z"/>
  <path fill="#fff2ae" opacity=".65" d="M49 73c20-26 45-37 76-38h68c-12 7-26 12-41 16h-91c-4 6-8 12-12 22z"/>
</svg>
